<svg width="60" height="21" viewBox="0 0 60 21" fill="none" xmlns="http://www.w3.org/2000/svg">
<g filter="url(#filter0_d_359_152)">
<path d="M6.69744 9L4.23438 0.272727H5.93466L7.5071 6.68608H7.58807L9.26705 0.272727H10.8139L12.4972 6.69034H12.5739L14.1463 0.272727H15.8466L13.3835 9H11.8239L10.0767 2.87642H10.0085L8.2571 9H6.69744ZM16.5828 9V0.272727H22.259V1.59801H18.1638V3.96733H21.9649V5.29261H18.1638V7.67472H22.2931V9H16.5828ZM23.5119 9V0.272727H26.8528C27.4835 0.272727 28.0076 0.372159 28.4252 0.571022C28.8457 0.767045 29.1596 1.03551 29.367 1.37642C29.5772 1.71733 29.6823 2.10369 29.6823 2.53551C29.6823 2.89062 29.6142 3.1946 29.4778 3.44744C29.3414 3.69744 29.1582 3.90057 28.9281 4.05682C28.698 4.21307 28.4409 4.32528 28.1568 4.39347V4.47869C28.4664 4.49574 28.7633 4.59091 29.0474 4.7642C29.3343 4.93466 29.5687 5.17614 29.7505 5.48864C29.9323 5.80114 30.0233 6.17898 30.0233 6.62216C30.0233 7.07386 29.9139 7.48011 29.6951 7.84091C29.4764 8.19886 29.1468 8.48153 28.7065 8.68892C28.2662 8.89631 27.7122 9 27.0446 9H23.5119ZM25.0929 7.67898H26.7931C27.367 7.67898 27.7804 7.5696 28.0332 7.35085C28.2889 7.12926 28.4167 6.84517 28.4167 6.49858C28.4167 6.24006 28.3528 6.0071 28.225 5.79972C28.0971 5.58949 27.9153 5.42472 27.6795 5.3054C27.4437 5.18324 27.1625 5.12216 26.8358 5.12216H25.0929V7.67898ZM25.0929 3.98438H26.6568C26.9295 3.98438 27.1752 3.93466 27.394 3.83523C27.6127 3.73295 27.7846 3.58949 27.9096 3.40483C28.0375 3.21733 28.1014 2.99574 28.1014 2.74006C28.1014 2.40199 27.9821 2.12358 27.7434 1.90483C27.5076 1.68608 27.1568 1.5767 26.6909 1.5767H25.0929V3.98438ZM35.7815 2.67188C35.7417 2.29972 35.5741 2.00994 35.2787 1.80256C34.9861 1.59517 34.6054 1.49148 34.1366 1.49148C33.8071 1.49148 33.5244 1.54119 33.2886 1.64062C33.0528 1.74006 32.8724 1.875 32.7474 2.04545C32.6224 2.21591 32.5585 2.41051 32.5557 2.62926C32.5557 2.81108 32.5968 2.96875 32.6792 3.10227C32.7645 3.2358 32.8795 3.34943 33.0244 3.44318C33.1693 3.53409 33.3298 3.6108 33.5059 3.6733C33.6821 3.7358 33.8596 3.78835 34.0386 3.83097L34.8568 4.03551C35.1863 4.11222 35.5031 4.21591 35.8071 4.34659C36.1139 4.47727 36.388 4.64205 36.6295 4.84091C36.8738 5.03977 37.067 5.27983 37.2091 5.56108C37.3511 5.84233 37.4221 6.17187 37.4221 6.54972C37.4221 7.06108 37.2914 7.51136 37.0301 7.90057C36.7687 8.28693 36.3909 8.58949 35.8966 8.80824C35.4051 9.02415 34.8099 9.1321 34.1111 9.1321C33.4321 9.1321 32.8426 9.02699 32.3426 8.81676C31.8454 8.60653 31.4562 8.29972 31.175 7.89631C30.8966 7.4929 30.746 7.00142 30.7233 6.42188H32.2787C32.3014 6.72585 32.3951 6.97869 32.5599 7.1804C32.7247 7.3821 32.9392 7.53267 33.2034 7.6321C33.4704 7.73153 33.7687 7.78125 34.0983 7.78125C34.442 7.78125 34.7432 7.73011 35.0017 7.62784C35.263 7.52273 35.4676 7.37784 35.6153 7.19318C35.763 7.00568 35.8383 6.78693 35.8412 6.53693C35.8383 6.30966 35.7716 6.12216 35.6409 5.97443C35.5102 5.82386 35.327 5.69886 35.0912 5.59943C34.8582 5.49716 34.5855 5.40625 34.273 5.3267L33.2801 5.07102C32.5613 4.88636 31.9932 4.60653 31.5755 4.23153C31.1608 3.85369 30.9534 3.35227 30.9534 2.72727C30.9534 2.21307 31.0926 1.76278 31.371 1.37642C31.6522 0.990057 32.0343 0.690341 32.5173 0.477272C33.0003 0.261363 33.5471 0.153409 34.1579 0.153409C34.7772 0.153409 35.3199 0.261363 35.7858 0.477272C36.2545 0.690341 36.6224 0.987216 36.8895 1.3679C37.1565 1.74574 37.2943 2.1804 37.3028 2.67188H35.7815ZM40.0525 0.272727V9H38.4716V0.272727H40.0525ZM41.021 1.59801V0.272727H47.9841V1.59801H45.2866V9H43.7185V1.59801H41.021ZM48.9664 9V0.272727H54.6426V1.59801H50.5474V3.96733H54.3485V5.29261H50.5474V7.67472H54.6766V9H48.9664Z" fill="#F1F1F1"/>
<path d="M4 11.3864H55.3968V12.2045H4V11.3864Z" fill="#F1F1F1"/>
</g>
<defs>
<filter id="filter0_d_359_152" x="0" y="0.153381" width="59.397" height="20.0512" filterUnits="userSpaceOnUse" color-interpolation-filters="sRGB">
<feFlood flood-opacity="0" result="BackgroundImageFix"/>
<feColorMatrix in="SourceAlpha" type="matrix" values="0 0 0 0 0 0 0 0 0 0 0 0 0 0 0 0 0 0 127 0" result="hardAlpha"/>
<feOffset dy="4"/>
<feGaussianBlur stdDeviation="2"/>
<feComposite in2="hardAlpha" operator="out"/>
<feColorMatrix type="matrix" values="0 0 0 0 0 0 0 0 0 0 0 0 0 0 0 0 0 0 0.25 0"/>
<feBlend mode="normal" in2="BackgroundImageFix" result="effect1_dropShadow_359_152"/>
<feBlend mode="normal" in="SourceGraphic" in2="effect1_dropShadow_359_152" result="shape"/>
</filter>
</defs>
</svg>
