<svg width="53" height="13" viewBox="0 0 53 13" fill="none" xmlns="http://www.w3.org/2000/svg">
<path d="M0.860795 9V0.272727H2.44176V7.67472H6.28551V9H0.860795ZM8.87864 0.272727V9H7.29767V0.272727H8.87864ZM17.4025 0.272727V9H15.9963L11.884 3.0554H11.8116V9H10.2306V0.272727H11.6454L15.7534 6.22159H15.8301V0.272727H17.4025ZM18.7652 9V0.272727H20.3461V4.28267H20.4527L23.8575 0.272727H25.7879L22.4129 4.18892L25.8177 9H23.9172L21.3135 5.25852L20.3461 6.40057V9H18.7652ZM26.5263 9V0.272727H32.2024V1.59801H28.1072V3.96733H31.9084V5.29261H28.1072V7.67472H32.2365V9H26.5263ZM36.4127 9H33.4553V0.272727H36.4724C37.3389 0.272727 38.0832 0.447443 38.7053 0.796875C39.3303 1.14347 39.8104 1.64205 40.1457 2.29261C40.4809 2.94318 40.6485 3.72159 40.6485 4.62784C40.6485 5.53693 40.4795 6.31818 40.1414 6.97159C39.8062 7.625 39.3218 8.12642 38.6883 8.47585C38.0576 8.82528 37.2991 9 36.4127 9ZM35.0363 7.6321H36.336C36.944 7.6321 37.4511 7.52131 37.8573 7.29972C38.2636 7.07528 38.569 6.74148 38.7735 6.2983C38.9781 5.85227 39.0803 5.29545 39.0803 4.62784C39.0803 3.96023 38.9781 3.40625 38.7735 2.96591C38.569 2.52273 38.2664 2.19176 37.8658 1.97301C37.4681 1.75142 36.9738 1.64062 36.3829 1.64062H35.0363V7.6321ZM43.3716 0.272727V9H41.7906V0.272727H43.3716ZM51.8955 0.272727V9H50.4892L46.377 3.0554H46.3046V9H44.7236V0.272727H46.1384L50.2463 6.22159H50.323V0.272727H51.8955Z" fill="#F1F1F1"/>
<path d="M0 11.3864H52.752V12.2045H0V11.3864Z" fill="#F1F1F1"/>
</svg>
